# xmcd
#
# Track frame offsets: 
#        150
#        12453
#        26351
#        40803
#        53361
#        67226
#        82556
#        95948
#        110291
#        125051
#        136475
#        145922
#        159230
#        172146
#        186263
#        198310
#        210778
#        222053
#
# Disc length: 3079 seconds
#
# Revision: 4
# Processed by: cddbd v1.5.2PL0 Copyright (c) Steve Scherf et al.
# Submitted via: ExactAudioCopyFreeDBPlugin 1.0
#
DISCID=f70c0512
DTITLE=Merle Haggard - 18 Rare Classics
DYEAR=1991
DGENRE=Country
TTITLE0=Kentucky Gambler
TTITLE1=Running Kind
TTITLE2=Grandma Harp
TTITLE3=Turnin' Off A Memory
TTITLE4=Making Believe
TTITLE5=The Way It Was In '51
TTITLE6=A Working Man Can't Get Nowhere Today
TTITLE7=What Have You Got Planned Tonight Diana
TTITLE8=Green Green Grass Of Home
TTITLE9=Here In Frisco
TTITLE10=Where Does The Good Times Go
TTITLE11=Am I Standing In Your Way
TTITLE12=Love And Honor
TTITLE13=White Line Fever
TTITLE14=I'm A Good Loser
TTITLE15=Silver Wings
TTITLE16=Got A Letter From My Kid Today
TTITLE17=When My Last Song Is Sung
EXTD=
EXTT0=
EXTT1=
EXTT2=
EXTT3=
EXTT4=
EXTT5=
EXTT6=
EXTT7=
EXTT8=
EXTT9=
EXTT10=
EXTT11=
EXTT12=
EXTT13=
EXTT14=
EXTT15=
EXTT16=
EXTT17=
PLAYORDER=
